{
    "asset" : {
        "generator" : "Khronos glTF Blender I/O v1.1.46",
        "version" : "2.0"
    },
    "scene" : 0,
    "scenes" : [
        {
            "name" : "Scene",
            "nodes" : [
                0
            ]
        }
    ],
    "nodes" : [
        {
            "mesh" : 0,
            "name" : "barrel_yellow_inner",
            "rotation" : [
                1,
                0,
                0,
                -1.3435885648505064e-07
            ],
            "scale" : [
                0.9767460227012634,
                0.9767460227012634,
                0.9767460227012634
            ],
            "translation" : [
                0,
                0.006184077356010675,
                0
            ]
        }
    ],
    "materials" : [
        {
            "doubleSided" : true,
            "emissiveFactor" : [
                0,
                0,
                0
            ],
            "name" : "Default OBJ",
            "pbrMetallicRoughness" : {
                "baseColorTexture" : {
                    "index" : 0,
                    "texCoord" : 0
                },
                "metallicFactor" : 0,
                "roughnessFactor" : 0.5
            }
        }
    ],
    "meshes" : [
        {
            "name" : "barrel_yellow_inner",
            "primitives" : [
                {
                    "attributes" : {
                        "POSITION" : 0,
                        "NORMAL" : 1,
                        "TANGENT" : 2,
                        "TEXCOORD_0" : 3
                    },
                    "indices" : 4,
                    "material" : 0
                }
            ]
        }
    ],
    "textures" : [
        {
            "source" : 0
        }
    ],
    "images" : [
        {
            "mimeType" : "image/png",
            "name" : "BakedColor",
            "uri" : "BakedColor.png"
        }
    ],
    "accessors" : [
        {
            "bufferView" : 0,
            "componentType" : 5126,
            "count" : 829,
            "max" : [
                0.27867698669433594,
                0.017437700182199478,
                0.2870739996433258
            ],
            "min" : [
                -0.2807539999485016,
                -0.8797309994697571,
                -0.2801609933376312
            ],
            "type" : "VEC3"
        },
        {
            "bufferView" : 1,
            "componentType" : 5126,
            "count" : 829,
            "type" : "VEC3"
        },
        {
            "bufferView" : 2,
            "componentType" : 5126,
            "count" : 829,
            "type" : "VEC4"
        },
        {
            "bufferView" : 3,
            "componentType" : 5126,
            "count" : 829,
            "type" : "VEC2"
        },
        {
            "bufferView" : 4,
            "componentType" : 5123,
            "count" : 1344,
            "type" : "SCALAR"
        }
    ],
    "bufferViews" : [
        {
            "buffer" : 0,
            "byteLength" : 9948,
            "byteOffset" : 0
        },
        {
            "buffer" : 0,
            "byteLength" : 9948,
            "byteOffset" : 9948
        },
        {
            "buffer" : 0,
            "byteLength" : 13264,
            "byteOffset" : 19896
        },
        {
            "buffer" : 0,
            "byteLength" : 6632,
            "byteOffset" : 33160
        },
        {
            "buffer" : 0,
            "byteLength" : 2688,
            "byteOffset" : 39792
        }
    ],
    "buffers" : [
        {
            "byteLength" : 42480,
            "uri" : "barrel_yellow_lowres.bin"
        }
    ]
}
